<?xml version="1.0" standalone="no"?>
<!DOCTYPE svg PUBLIC "-//W3C//DTD SVG 20010904//EN"
 "http://www.w3.org/TR/2001/REC-SVG-20010904/DTD/svg10.dtd">
<svg version="1.0" xmlns="http://www.w3.org/2000/svg"
 width="1400.000000pt" height="1001.000000pt" viewBox="0 0 1400.000000 1001.000000"
 preserveAspectRatio="xMidYMid meet">

<g transform="translate(0.000000,1001.000000) scale(0.100000,-0.100000)"
fill="#000000" stroke="none">
<path d="M6270 9470 c41 -4 147 -10 235 -13 l160 -5 59 -56 c33 -31 98 -79
145 -107 100 -59 131 -86 131 -110 0 -28 -48 -77 -98 -102 -184 -89 -278 -240
-237 -380 19 -65 88 -136 216 -221 126 -84 151 -133 164 -327 2 -20 -8 -66
-21 -104 -13 -38 -24 -83 -24 -101 0 -48 28 -128 87 -244 29 -58 53 -118 53
-133 0 -15 6 -43 14 -62 27 -65 -2 -194 -61 -272 -131 -171 -138 -195 -69
-242 25 -17 48 -43 54 -60 10 -28 8 -32 -30 -60 -54 -40 -108 -46 -338 -37
-190 7 -360 27 -605 73 -200 37 -360 37 -510 0 -60 -15 -135 -36 -165 -46 -30
-10 -101 -27 -156 -36 -98 -17 -105 -17 -190 1 -80 16 -93 22 -131 61 -74 74
-55 118 81 192 85 46 241 99 442 150 45 12 119 70 127 101 3 12 -4 33 -19 52
-48 67 -50 74 -20 113 15 19 40 42 55 49 42 22 89 81 97 121 3 19 1 71 -5 114
-10 65 -9 86 2 113 27 64 107 165 177 223 38 33 88 86 111 118 37 55 40 64 37
116 -3 55 -31 124 -82 196 -18 26 -21 44 -21 140 0 85 4 117 17 140 9 17 30
66 47 110 16 44 52 128 80 188 28 59 51 111 51 117 0 8 45 154 57 187 3 7 0
13 -6 13 -16 0 -54 -88 -75 -170 -9 -36 -23 -74 -30 -85 -7 -11 -23 -47 -35
-80 -12 -33 -27 -65 -31 -70 -13 -15 -70 -157 -70 -173 0 -7 -7 -23 -15 -36
-8 -12 -19 -56 -25 -97 -13 -104 3 -194 51 -295 66 -136 54 -171 -106 -329
-122 -120 -177 -201 -178 -263 0 -20 3 -73 8 -117 7 -74 6 -82 -15 -108 -12
-15 -46 -46 -76 -68 -57 -42 -73 -64 -85 -118 -7 -30 -4 -38 23 -63 62 -58 20
-97 -162 -148 -256 -72 -400 -133 -466 -199 -29 -28 -64 -108 -64 -144 0 -28
47 -67 110 -93 114 -46 243 -43 415 8 39 12 75 25 80 29 6 4 28 10 50 14 22 4
85 18 140 31 139 32 324 35 409 5 33 -12 102 -28 155 -36 53 -8 132 -21 176
-29 44 -8 109 -17 145 -21 36 -3 106 -11 157 -17 138 -16 266 2 358 51 113 59
123 112 34 176 -74 53 -74 53 91 271 86 113 100 141 100 195 0 44 -41 132 -88
192 -17 21 -52 88 -77 149 -55 129 -55 154 -6 278 35 86 39 152 15 222 -21 64
-69 109 -220 209 -13 9 -57 46 -98 82 -60 54 -75 74 -86 113 -12 41 -11 53 6
102 25 75 46 97 161 175 54 36 118 86 142 111 40 41 43 48 38 83 -7 44 -39 75
-122 118 -79 42 -184 122 -194 149 -9 21 -17 23 -108 29 -54 4 -170 6 -258 6
-137 -1 -149 -3 -85 -9z"/>
<path d="M8771 9415 c-50 -54 -54 -92 -15 -148 28 -42 54 -109 54 -141 0 -11
11 -34 24 -49 14 -16 23 -34 21 -40 -35 -116 -63 -193 -86 -239 -16 -32 -29
-70 -29 -85 0 -16 -7 -39 -16 -51 -36 -51 3 -91 111 -117 133 -31 208 -19 375
57 135 63 173 71 315 73 72 0 162 5 202 9 l71 9 31 -49 c17 -27 31 -57 31 -66
0 -9 -24 -45 -54 -80 -57 -67 -86 -116 -86 -145 0 -10 -7 -31 -15 -47 -8 -15
-15 -35 -15 -42 0 -8 -9 -33 -19 -57 -47 -104 -39 -112 101 -104 91 6 104 4
129 -14 16 -11 29 -23 29 -27 0 -11 -41 -53 -90 -92 -147 -118 -186 -157 -218
-220 -45 -89 -92 -236 -92 -288 0 -82 55 -146 141 -164 78 -16 145 7 228 77
35 30 94 67 130 82 36 15 118 54 181 86 63 32 149 69 190 84 58 19 82 34 108
64 37 43 63 52 187 70 94 13 237 45 280 64 70 30 122 118 130 217 2 40 9 94
13 120 15 82 124 278 154 278 6 0 26 11 45 25 45 35 157 78 284 108 223 54
241 98 109 268 -50 65 -60 84 -60 117 0 42 -7 34 119 139 21 18 64 44 96 58
70 31 107 56 174 118 33 30 46 47 36 47 -9 0 -40 -20 -68 -45 -51 -45 -204
-129 -303 -166 -27 -10 -65 -34 -83 -53 -29 -30 -33 -40 -28 -70 6 -36 46
-103 98 -163 32 -37 46 -92 31 -120 -23 -42 -101 -82 -222 -113 -56 -15 -221
-103 -266 -142 -46 -41 -126 -194 -165 -318 -36 -117 -59 -158 -115 -211 -42
-39 -128 -89 -155 -89 -9 0 -36 -7 -59 -15 -24 -8 -66 -19 -94 -25 -171 -32
-246 -58 -246 -85 0 -8 5 -15 10 -15 6 0 10 -6 10 -14 0 -16 -42 -46 -65 -46
-9 0 -71 -28 -138 -63 -67 -35 -155 -76 -195 -91 -41 -16 -94 -44 -119 -63
-79 -61 -106 -73 -155 -73 -76 0 -137 64 -152 158 -10 68 11 169 52 248 31 61
52 84 132 151 52 43 112 89 133 102 98 60 49 151 -82 151 -28 0 -67 8 -86 17
-44 21 -44 28 16 178 30 77 54 118 90 158 77 87 82 123 24 177 -25 23 -33 25
-123 23 -53 -1 -165 -2 -249 -2 -168 0 -215 -9 -373 -69 -120 -45 -191 -49
-265 -12 -27 14 -49 28 -47 33 1 4 -7 16 -19 28 -16 16 -19 27 -13 52 3 18 10
37 14 42 17 23 110 269 110 292 0 31 -22 72 -55 103 -24 22 -35 39 -83 127
-19 34 -8 67 40 119 34 37 37 44 21 44 -11 0 -39 -20 -62 -45z"/>
<path d="M5297 9295 c-42 -7 -130 -29 -195 -48 -64 -20 -137 -41 -162 -47 -25
-6 -58 -17 -75 -25 -81 -36 -156 -65 -168 -65 -8 0 -29 10 -48 23 -19 12 -49
29 -67 36 -68 28 -134 -14 -254 -163 -46 -55 -48 -61 -48 -120 0 -75 -15 -131
-44 -171 -13 -16 -38 -59 -56 -93 -51 -96 -142 -180 -262 -243 -165 -86 -181
-113 -176 -282 l3 -108 41 -39 c63 -59 208 -90 267 -58 45 24 184 69 240 78
70 10 95 3 137 -43 37 -41 89 -58 175 -58 55 0 73 5 121 33 31 18 66 45 77 60
31 42 34 125 8 203 -25 73 -20 95 28 114 23 10 34 10 52 0 41 -21 180 -41 246
-34 49 5 73 14 114 43 95 66 128 134 129 268 0 52 7 73 48 155 27 51 52 115
55 140 8 58 36 107 103 182 83 93 100 142 67 198 -12 20 -31 33 -58 40 -22 6
-55 17 -73 25 -39 17 -120 17 -225 -1z m251 -28 c29 -9 59 -22 66 -30 17 -17
31 -77 18 -77 -6 0 -15 -12 -20 -27 -6 -16 -33 -52 -62 -82 -28 -30 -58 -67
-66 -83 -8 -15 -18 -28 -23 -28 -10 0 -31 -77 -31 -112 0 -13 -9 -39 -20 -58
-62 -109 -63 -113 -71 -222 -8 -119 -29 -180 -79 -221 -48 -41 -182 -46 -254
-10 -20 10 -50 14 -95 11 -54 -3 -73 -9 -103 -31 -47 -37 -54 -68 -28 -141 25
-73 25 -93 1 -149 -23 -52 -68 -84 -133 -93 -58 -8 -103 7 -153 52 -22 20 -50
39 -61 44 -29 12 -172 -4 -314 -34 -90 -18 -127 -22 -167 -16 -93 15 -126 51
-128 137 0 43 -6 57 -29 82 -27 28 -27 31 -15 65 11 29 30 47 91 86 42 28 80
50 83 50 12 0 121 79 161 116 22 22 56 64 74 94 18 30 50 81 71 112 39 60 73
176 63 215 -11 39 110 193 180 230 35 18 57 13 126 -32 85 -55 106 -55 214 -1
92 46 269 109 426 152 97 27 190 27 278 1z"/>
<path d="M8763 7820 c-42 -10 -123 -77 -139 -116 -11 -25 -11 -67 -2 -217 l11
-187 -36 -74 c-49 -99 -48 -134 11 -213 18 -24 22 -39 17 -61 -6 -31 -69 -112
-86 -112 -5 0 -31 -15 -58 -32 -27 -18 -71 -45 -97 -60 -27 -15 -78 -46 -114
-68 -85 -53 -119 -62 -285 -70 -160 -8 -188 -14 -344 -76 l-114 -46 -96 11
c-53 5 -118 15 -146 21 -56 12 -190 7 -248 -10 -38 -11 -88 -56 -171 -154 -27
-33 -46 -46 -65 -46 -54 -1 -183 -29 -224 -49 -31 -15 -47 -32 -62 -63 -18
-38 -27 -46 -80 -65 -111 -41 -216 -27 -334 43 -133 80 -187 91 -248 55 -36
-23 -42 -47 -31 -131 9 -74 -9 -112 -70 -142 -42 -21 -60 -23 -172 -21 -68 0
-149 6 -180 12 -30 6 -93 18 -140 26 -73 14 -137 30 -285 75 -16 5 -69 16
-117 26 -99 20 -144 13 -198 -32 -38 -32 -38 -44 0 -77 16 -15 27 -33 24 -40
-3 -8 -29 -24 -58 -36 -65 -27 -109 -70 -104 -102 7 -51 139 -101 323 -124
181 -22 253 -51 380 -151 114 -89 158 -138 205 -227 50 -97 69 -168 84 -317
11 -102 10 -123 -6 -184 -10 -38 -18 -94 -18 -124 0 -47 -6 -64 -47 -131 -59
-97 -90 -130 -183 -196 -126 -89 -222 -203 -309 -367 -73 -137 -114 -180 -198
-207 -37 -12 -89 -25 -115 -28 -31 -4 -48 -11 -48 -19 0 -17 -1 -17 86 0 92
17 177 60 223 113 20 23 58 83 85 135 27 51 58 105 70 120 12 15 39 50 60 78
22 27 63 69 93 91 29 23 53 45 53 49 0 3 24 23 53 43 69 48 104 87 159 177 41
68 46 83 51 155 3 44 14 98 23 120 13 33 15 60 10 155 -7 143 -24 218 -78 345
-38 88 -52 108 -123 180 -128 130 -193 174 -348 236 -78 32 -110 38 -247 49
-150 11 -192 23 -188 54 2 15 22 31 67 53 104 53 122 76 91 116 -25 31 -25 32
2 57 37 34 149 20 363 -45 91 -28 298 -65 395 -71 36 -2 86 -6 112 -9 53 -6
120 7 190 37 36 15 55 32 73 62 35 61 57 131 49 162 -5 20 -2 31 11 40 21 16
39 9 143 -50 132 -76 221 -90 379 -62 83 15 94 22 129 85 32 60 66 80 146 87
132 11 194 44 271 147 15 21 40 45 54 54 47 31 173 35 308 9 11 -2 57 -7 102
-11 77 -7 89 -5 175 25 51 18 105 39 119 46 47 23 121 36 230 39 174 5 261 31
368 109 27 20 89 55 138 77 99 46 182 108 208 157 18 32 18 33 -15 131 -34
102 -35 117 -14 245 4 22 1 69 -5 105 -6 36 -12 113 -14 171 -2 102 -1 106 26
142 16 21 50 49 75 63 41 23 58 26 166 28 139 2 190 -9 241 -54 63 -56 63
-103 1 -269 -41 -109 -44 -144 -16 -231 14 -47 31 -76 63 -109 61 -62 66 -74
55 -129 -5 -25 -10 -53 -11 -60 -1 -8 18 -26 43 -40 42 -24 54 -26 170 -25
115 1 131 3 195 30 39 17 91 44 115 60 108 72 212 85 346 42 109 -36 260 -52
407 -43 73 4 135 3 165 -4 26 -6 74 -14 107 -18 59 -8 60 -9 63 -40 4 -44 69
-84 133 -82 l44 1 -53 13 c-64 16 -92 39 -92 75 0 18 -8 31 -22 38 -43 22
-193 37 -338 34 -184 -3 -309 11 -433 49 -93 30 -100 30 -169 19 -84 -14 -126
-31 -187 -73 -74 -51 -193 -87 -286 -87 -68 0 -144 16 -177 36 -4 3 -1 21 7
41 27 64 20 89 -39 151 -59 62 -96 145 -96 214 0 37 39 168 66 220 8 15 14 52
14 83 0 52 -3 58 -44 100 -61 60 -116 75 -270 74 -67 -1 -135 -4 -153 -9z"/>
<path d="M12169 7725 c-3 -2 -40 -10 -82 -16 -87 -13 -147 -51 -181 -113 l-19
-36 27 -41 27 -41 -33 -51 c-19 -29 -39 -61 -44 -72 -18 -33 -154 -133 -239
-174 -44 -22 -138 -58 -210 -80 -139 -45 -225 -90 -225 -119 0 -10 14 -26 30
-35 24 -14 30 -25 30 -51 0 -50 -13 -56 -119 -56 -72 -1 -91 -3 -78 -11 25
-15 155 -14 200 0 20 7 44 22 52 34 18 26 19 76 3 112 -10 22 -8 29 12 50 13
14 28 25 34 25 6 0 23 6 37 14 14 7 68 28 120 46 168 57 283 128 407 251 77
75 93 109 72 143 -42 66 -44 73 -33 99 19 41 75 77 140 88 60 11 92 24 82 33
-3 4 -8 4 -10 1z"/>
<path d="M8690 6399 c-141 -13 -209 -37 -325 -115 -74 -48 -159 -130 -151
-143 9 -14 47 -5 110 25 28 13 55 24 62 24 18 0 29 -101 15 -142 -5 -18 -13
-46 -15 -62 -6 -36 -10 -39 -66 -60 -62 -25 -70 -33 -70 -78 0 -63 22 -101 74
-128 36 -20 46 -30 46 -50 0 -65 14 -103 49 -139 75 -75 94 -85 191 -100 81
-12 144 -5 214 24 40 17 40 17 59 -9 22 -30 73 -60 87 -51 17 11 11 29 -25 68
-21 23 -32 44 -28 54 10 26 -18 33 -56 14 -52 -26 -143 -51 -188 -51 -87 0
-213 51 -213 87 0 9 14 13 43 13 49 1 124 24 218 69 37 17 73 29 80 26 8 -3
21 -1 29 5 12 8 11 13 -11 37 -14 15 -29 36 -32 46 -5 13 -15 17 -34 15 -26
-3 -28 -6 -26 -41 2 -36 1 -38 -50 -61 -73 -33 -158 -56 -206 -56 -40 0 -41 1
-41 34 0 31 4 35 33 41 63 14 127 59 127 90 0 22 -26 19 -88 -11 -42 -20 -65
-25 -96 -21 -49 7 -86 44 -86 87 0 39 28 56 108 69 52 8 71 7 103 -6 42 -16
55 -13 46 11 -5 13 -38 27 -100 41 -22 4 -27 10 -22 23 30 72 30 169 0 202
-10 11 -15 23 -12 27 4 3 51 6 104 6 88 0 105 -3 168 -30 38 -18 70 -35 71
-40 1 -4 5 -20 8 -35 11 -49 120 -62 195 -23 29 14 29 14 36 -21 3 -20 3 -60
-1 -90 -7 -57 4 -84 34 -84 8 0 24 -8 34 -17 14 -13 21 -14 30 -5 18 18 35 14
41 -8 3 -13 14 -20 29 -20 36 0 40 -9 18 -38 -25 -31 -25 -39 0 -52 17 -9 24
-6 45 16 27 29 27 29 44 -3 7 -15 21 -23 36 -23 31 0 33 22 5 68 -19 31 -32
39 -110 68 l-35 12 28 11 c16 6 50 11 77 11 45 0 54 -4 95 -43 25 -24 45 -51
45 -60 0 -101 -142 -163 -252 -109 -61 30 -91 14 -53 -28 13 -15 13 -19 -6
-39 -28 -29 -40 -86 -28 -120 6 -14 24 -40 41 -58 17 -17 28 -36 24 -41 -10
-17 -105 -35 -150 -29 -45 6 -59 1 -69 -25 -9 -25 -93 -79 -177 -114 -130 -54
-194 -85 -226 -110 -30 -22 -36 -23 -110 -14 -95 11 -176 25 -265 46 -90 21
-119 16 -144 -23 -17 -28 -24 -32 -50 -27 -71 14 -112 59 -124 134 -4 27 -16
61 -25 75 -18 27 -126 85 -159 85 -11 0 -42 7 -71 15 -100 29 -203 24 -288
-16 -37 -16 -37 -55 -1 -86 14 -13 30 -23 36 -23 5 0 6 -8 2 -17 -4 -10 -7
-29 -6 -43 1 -14 -4 -35 -10 -47 -25 -47 22 -84 119 -92 l67 -6 -3 -33 c-3
-25 3 -39 27 -62 33 -33 46 -35 138 -19 55 10 73 9 121 -6 102 -32 102 -32 86
-71 -14 -32 -13 -34 13 -51 23 -15 49 -17 202 -15 97 2 241 -2 321 -8 145 -12
146 -12 183 12 131 81 165 104 189 126 15 14 31 22 35 19 4 -4 -3 -14 -15 -23
-14 -9 -22 -26 -22 -43 0 -29 12 -38 77 -56 22 -6 22 -7 7 -43 -27 -65 -34
-123 -18 -154 8 -15 17 -28 19 -28 3 0 28 14 57 32 l51 32 15 -22 c8 -12 21
-22 29 -22 11 0 8 -8 -9 -30 -13 -17 -46 -68 -74 -113 l-51 -82 -59 -6 c-90
-9 -116 -28 -79 -59 25 -21 18 -27 -55 -44 -58 -14 -96 -34 -204 -107 -74 -49
-137 -96 -140 -105 -3 -8 -3 -26 0 -40 4 -14 2 -24 -4 -24 -6 0 -12 -10 -14
-21 -4 -27 -42 -43 -60 -25 -8 7 -23 18 -35 24 -12 7 -23 26 -27 47 -10 51
-67 110 -124 129 -125 41 -174 31 -267 -58 -67 -63 -81 -113 -44 -152 12 -13
30 -24 38 -24 22 0 158 -67 197 -96 17 -13 45 -29 63 -35 21 -8 30 -16 27 -25
-3 -8 -9 -21 -12 -28 -4 -11 17 -26 73 -54 43 -22 89 -43 103 -47 14 -4 29
-14 35 -21 16 -21 75 -22 75 -1 0 6 24 23 53 37 46 22 54 31 74 80 17 45 30
60 64 79 32 18 47 21 59 13 32 -20 97 -2 145 40 l45 40 -6 -31 c-4 -19 -2 -37
6 -46 7 -8 10 -15 6 -15 -17 0 27 -59 51 -68 26 -10 123 -21 203 -22 l35 0 -3
-107 c-2 -92 -13 -234 -28 -373 -2 -19 2 -46 9 -60 14 -28 36 -32 128 -24 l56
6 8 91 c4 51 9 119 10 152 2 33 9 118 16 189 l13 129 214 -6 c118 -3 217 -8
220 -11 8 -8 3 -201 -8 -331 -6 -60 -13 -148 -17 -194 l-6 -84 29 7 c16 4 47
9 69 10 22 2 55 6 73 10 29 7 32 11 33 44 0 20 2 60 5 87 12 141 25 306 28
350 2 28 7 62 11 77 l7 27 135 -4 c90 -3 143 0 157 7 12 7 33 11 49 10 20 -2
27 2 27 15 1 133 12 274 24 315 8 29 18 85 22 125 6 68 5 73 -19 95 -47 43
-58 50 -74 44 -8 -4 -21 -2 -28 4 -12 10 -516 15 -547 6 -12 -4 -51 -7 -368
-22 -156 -7 -156 -10 -20 81 47 31 106 80 131 108 l46 52 64 -23 c213 -78 593
-171 844 -208 41 -6 56 9 103 103 23 44 68 112 102 149 33 38 64 82 68 98 11
41 22 41 68 5 83 -66 170 -77 262 -34 43 20 56 32 71 66 33 73 9 138 -63 175
-108 56 -303 127 -311 113 -11 -17 -34 -9 -37 13 -2 17 -25 30 -108 65 -58 23
-115 43 -127 43 -23 0 -63 -32 -63 -50 0 -6 -11 -15 -25 -20 -53 -20 -73 -84
-50 -158 6 -18 4 -21 -9 -16 -22 8 -74 -14 -86 -37 -6 -10 -10 -49 -10 -88 0
-55 -3 -71 -14 -71 -8 0 -17 4 -21 9 -3 5 -20 12 -38 16 -17 3 -78 27 -134 52
-99 44 -103 48 -103 77 0 40 -15 62 -114 166 -82 86 -176 191 -216 243 -22 28
-63 37 -76 16 -13 -21 103 -173 243 -319 40 -41 73 -77 73 -80 0 -3 -55 -6
-123 -8 -67 -1 -179 -10 -249 -18 -69 -9 -133 -14 -142 -11 -34 13 -29 52 16
121 23 36 46 66 49 66 4 0 9 -18 13 -40 3 -22 15 -49 27 -61 18 -18 29 -20
130 -16 127 5 144 13 134 66 -8 42 -31 71 -55 71 -23 0 -42 -24 -38 -47 3 -15
-5 -18 -54 -21 l-58 -3 0 31 c0 20 -9 39 -25 54 -14 13 -25 27 -25 31 0 4 -8
14 -17 21 -15 11 -16 13 -3 17 8 3 23 8 33 11 35 11 32 37 -9 72 -68 58 -148
120 -166 126 -35 14 -41 -15 -43 -230 -1 -114 -5 -214 -9 -223 -5 -12 5 -30
33 -60 23 -23 41 -43 41 -45 0 -1 -16 -5 -35 -8 -19 -4 -68 -20 -107 -36 -40
-16 -74 -27 -77 -24 -4 3 -6 88 -7 189 -1 187 -19 307 -51 346 -20 24 -17 25
42 27 61 1 150 41 169 77 6 11 17 24 24 28 14 9 16 34 3 39 -16 6 -61 81 -61
101 0 11 5 35 11 52 l12 31 81 -4 c66 -3 89 0 127 17 87 39 140 120 124 191
-7 33 -64 87 -107 102 -33 12 -33 14 -12 56 28 58 28 93 -3 151 -15 30 -37 60
-48 65 -37 20 -66 44 -58 49 4 3 27 8 51 12 65 11 47 29 -31 33 -37 2 -67 6
-67 10 0 4 14 19 32 34 28 23 31 29 18 38 -29 19 -71 11 -100 -20 -33 -35 -35
-36 -94 -10 -99 42 -275 63 -416 49z m305 -68 c155 -53 192 -64 208 -63 10 0
22 -12 31 -31 7 -18 26 -43 41 -57 38 -35 55 -72 55 -120 0 -67 -21 -96 -75
-103 -25 -4 -58 -13 -74 -21 -23 -12 -35 -13 -59 -4 -30 12 -31 14 -30 72 0
34 5 67 10 73 16 20 -17 61 -55 68 -22 4 -53 -1 -92 -14 -33 -12 -65 -21 -72
-21 -15 0 -46 57 -35 64 4 2 55 10 112 16 170 18 203 24 207 37 6 18 -70 35
-145 32 -63 -2 -151 -18 -215 -39 -21 -7 -40 -4 -75 11 -78 34 -146 41 -223
23 -105 -24 -116 -13 -29 28 66 32 113 45 210 62 43 8 274 -2 305 -13z m-1376
-958 c121 -34 163 -69 167 -138 1 -16 2 -42 3 -56 2 -37 89 -96 153 -105 l48
-7 -22 -36 c-33 -56 -34 -56 -85 -33 -27 12 -73 29 -103 38 -49 14 -61 15
-111 1 -31 -8 -61 -12 -67 -8 -5 3 -11 30 -14 58 -3 35 -14 66 -32 92 -34 48
-31 72 9 83 57 15 105 -16 105 -68 0 -39 13 -50 31 -28 11 13 10 23 -2 57 -19
54 -60 77 -137 76 -31 0 -73 2 -92 5 -43 6 -140 57 -140 73 0 18 70 31 140 26
36 -3 103 -17 149 -30z m1321 -116 c0 -17 -9 -26 -35 -36 -40 -14 -130 -99
-140 -131 -4 -14 -1 -28 10 -40 9 -10 14 -23 11 -29 -7 -10 -166 -120 -203
-139 -17 -9 -59 -8 -185 4 -110 10 -208 14 -300 10 -88 -4 -138 -3 -138 4 0
10 39 82 49 90 10 8 61 114 61 128 0 16 15 15 150 -8 63 -12 144 -24 178 -27
70 -6 66 -1 50 -74 -2 -9 7 -15 27 -17 26 -2 32 2 42 29 l13 32 20 -26 c39
-49 88 -30 60 23 -9 17 -7 19 25 18 45 -2 51 5 25 30 l-22 20 49 25 c134 68
229 119 238 128 13 13 15 12 15 -14z m395 -21 l30 -25 -35 -29 c-33 -28 -34
-31 -21 -55 12 -23 11 -28 -6 -51 l-20 -25 -5 32 c-3 17 -6 69 -7 115 -2 93
-2 93 64 38z m-1855 8 c0 -13 -6 -15 -27 -9 -46 11 -51 25 -10 25 27 0 37 -4
37 -16z m4 -70 c26 -26 20 -45 -11 -38 -35 8 -73 31 -73 44 0 16 67 11 84 -6z
m1471 -14 c7 -23 9 -259 2 -267 -7 -6 -77 24 -77 34 0 4 16 24 37 45 31 32 34
39 23 53 -8 9 -31 24 -52 32 -21 8 -38 21 -38 29 0 13 78 94 91 94 4 0 11 -9
14 -20z m1626 -92 c22 -6 39 -15 39 -20 0 -11 -33 -2 -70 18 -31 17 -19 18 31
2z m-76 -29 c31 -12 72 -21 91 -22 19 -1 34 -6 34 -13 0 -11 61 -35 240 -94
52 -18 99 -36 104 -41 6 -5 18 -9 28 -9 37 0 45 -90 9 -109 -9 -5 -37 -12 -64
-16 -40 -6 -56 -3 -102 20 -56 27 -67 41 -40 51 8 4 15 13 15 20 0 21 -45 35
-74 24 -27 -10 -36 -5 -36 21 0 10 -13 25 -29 33 -36 19 -51 6 -51 -46 0 -21
-2 -38 -4 -38 -21 0 -36 17 -36 41 0 20 -9 35 -34 54 -28 21 -48 27 -120 32
-47 3 -86 10 -86 14 0 30 37 80 64 88 17 5 32 10 33 10 1 1 28 -8 58 -20z
m-97 -190 c31 -11 82 -29 112 -38 73 -24 120 -49 120 -64 0 -7 -34 -49 -77
-93 -56 -58 -86 -99 -111 -154 -20 -41 -36 -76 -36 -76 -1 -1 -30 3 -66 7 -36
5 -87 12 -115 15 -27 3 -66 12 -85 20 -19 8 -87 27 -150 43 -111 29 -174 46
-346 97 -44 13 -90 24 -102 24 -17 0 -21 5 -19 22 3 28 -28 36 -53 13 -17 -15
-20 -15 -44 0 -44 29 -90 -3 -51 -35 9 -7 14 -19 11 -25 -2 -7 0 -17 6 -23 14
-14 -4 -37 -57 -70 -132 -82 -359 -264 -399 -320 -27 -38 -255 -272 -265 -272
-3 0 -28 21 -55 46 -28 24 -73 58 -100 74 -28 17 -60 37 -71 46 l-20 15 20 15
c11 7 29 22 40 33 25 22 150 102 187 118 14 7 55 17 90 23 72 13 88 23 88 55
0 17 9 25 38 33 31 10 43 23 79 84 23 40 76 116 117 168 76 94 77 95 149 117
39 12 94 22 120 22 55 1 89 15 81 35 -4 10 19 14 102 19 149 10 232 9 239 -2
3 -5 18 -12 35 -16 16 -3 39 -14 52 -24 30 -22 139 -67 201 -82 50 -12 56 -19
32 -39 -8 -7 -15 -20 -15 -30 0 -18 46 -48 57 -37 3 4 17 -3 30 -15 21 -20 24
-20 41 -5 16 15 21 14 64 -14 32 -21 54 -29 67 -24 31 10 25 37 -14 62 -24 16
-37 34 -45 63 -10 36 -14 40 -42 40 -23 0 -28 3 -21 13 6 6 16 37 24 67 22 96
50 108 157 69z m-1443 -116 c-2 -7 -12 -13 -21 -13 -13 0 -15 7 -9 37 4 21 10
42 13 48 7 12 23 -55 17 -72z m1211 -436 c-19 -90 -30 -203 -31 -302 l0 -110
-50 -3 c-77 -4 -80 1 -78 120 2 57 7 118 12 135 6 20 6 35 0 38 -5 4 -9 -3 -9
-15 0 -12 -5 -30 -11 -41 -6 -11 -12 -66 -13 -122 l-3 -102 -56 -3 c-51 -3
-56 -1 -54 18 2 24 4 25 24 5 20 -21 33 -10 33 30 0 18 7 41 16 49 14 15 13
16 -15 16 -18 0 -31 5 -32 13 0 9 -2 9 -5 0 -3 -7 -11 -10 -17 -7 -7 2 -13 -4
-14 -17 -1 -15 1 -18 10 -10 17 13 31 2 34 -26 3 -27 -3 -29 -23 -8 -19 18
-32 19 -31 3 1 -47 -4 -68 -19 -68 -14 0 -15 7 -9 38 4 20 8 55 9 77 5 94 6
105 15 105 5 0 11 -6 13 -12 2 -9 11 -6 26 9 l24 21 -23 12 c-18 10 -21 10
-16 -2 4 -11 -1 -14 -19 -10 -23 4 -24 8 -20 53 3 27 1 51 -4 54 -15 9 -12 25
3 19 9 -3 13 4 12 23 0 15 -4 26 -10 23 -5 -3 -9 -8 -7 -12 1 -5 -5 -8 -14 -8
-9 0 -14 7 -12 18 3 18 1 17 317 29 l53 2 -6 -32z m-858 -1 c196 7 284 11 388
19 l91 8 5 -28 c8 -38 3 -300 -7 -357 l-7 -47 -139 0 c-76 1 -139 5 -139 10 0
5 5 9 10 9 14 0 57 40 44 41 -5 1 -19 0 -31 -1 -15 -1 -23 4 -23 14 0 9 8 16
17 16 15 0 14 2 -3 14 -14 10 -22 11 -32 4 -7 -7 -9 -14 -3 -17 8 -6 15 -40
12 -68 -1 -12 -59 -29 -68 -19 -11 11 -14 86 -3 86 5 0 10 -9 10 -20 0 -11 5
-20 10 -20 6 0 10 9 10 19 0 11 4 22 8 25 4 2 9 29 10 60 2 43 -1 54 -11 50
-9 -3 -12 -16 -9 -34 3 -19 0 -30 -8 -30 -7 0 -10 -7 -7 -15 4 -8 2 -17 -3
-20 -6 -4 -10 3 -10 14 0 12 -5 21 -11 21 -8 0 -10 12 -6 35 3 19 2 35 -3 35
-12 0 -22 -34 -20 -68 1 -15 2 -53 1 -85 l-1 -58 -112 3 -113 3 2 181 c2 175
1 182 -18 177 -24 -7 -25 -23 -1 -23 11 0 13 -3 5 -8 -6 -4 -11 -14 -11 -22 1
-8 0 -30 0 -47 -2 -37 -22 -46 -23 -10 l0 22 -12 -23 c-8 -18 -8 -25 1 -31 15
-9 23 -91 9 -91 -5 0 -15 8 -22 17 -11 15 -13 15 -19 -5 -8 -23 12 -52 34 -52
6 0 8 -4 5 -10 -3 -5 -3 -16 1 -22 12 -19 12 -48 0 -49 -68 -5 -66 -5 -75 26
-9 30 -9 30 -10 3 -1 -26 -16 -39 -36 -31 -7 2 -10 38 -8 93 2 50 -1 90 -6 90
-4 0 -13 -38 -19 -85 -6 -47 -14 -90 -17 -95 -4 -6 -21 -10 -40 -10 l-34 0 15
37 c9 20 13 50 10 67 -4 25 1 38 24 64 16 17 34 32 40 32 6 0 14 9 18 21 13
33 114 144 149 164 17 10 35 25 39 34 6 15 7 15 11 -1 4 -15 19 -16 141 -12z
m998 -38 c-9 -93 -17 -161 -28 -238 -6 -41 -14 -100 -17 -130 -10 -88 -20 -44
-22 91 -1 97 4 144 21 214 27 115 27 115 40 115 7 0 9 -19 6 -52z m-2214 -115
c12 -10 31 -40 44 -68 l24 -50 -22 -16 c-14 -11 -19 -22 -14 -34 5 -14 15 -17
51 -13 44 5 45 5 51 -28 12 -65 58 -71 70 -10 5 30 10 36 32 36 27 0 152 -65
152 -79 0 -5 -7 -14 -14 -21 -8 -6 -20 -28 -27 -48 -12 -37 -43 -72 -63 -72
-6 0 -27 11 -46 23 -19 13 -53 32 -75 43 -22 10 -94 48 -160 85 -66 37 -150
82 -187 100 -51 25 -68 38 -68 54 0 20 65 91 105 114 28 17 122 6 147 -16z
m371 -143 c26 -16 52 -30 56 -30 5 0 16 -11 25 -25 25 -38 -3 -43 -51 -11 -21
14 -42 26 -47 26 -5 0 -24 10 -44 22 -32 20 -33 22 -16 35 24 17 23 18 77 -17z
m1245 -165 c249 -3 459 -8 467 -12 27 -10 16 -25 -12 -18 -16 4 -269 8 -563
10 -294 2 -567 4 -606 4 -44 1 -77 6 -90 15 -17 13 4 14 166 11 102 -2 389 -7
638 -10z m-494 -137 c-8 -89 -14 -100 -14 -27 0 30 -3 64 -6 77 -5 16 -2 22
10 22 15 0 16 -9 10 -72z m670 47 c-4 -8 -7 -15 -9 -15 -2 0 -5 7 -9 15 -3 9
0 15 9 15 9 0 12 -6 9 -15z m-664 -155 c0 -5 -4 -10 -10 -10 -5 0 -10 5 -10
10 0 6 5 10 10 10 6 0 10 -4 10 -10z m-15 -267 c-4 -46 -9 -82 -12 -79 -8 7
-4 133 4 166 11 44 15 1 8 -87z"/>
<path d="M9592 4766 c-9 -20 -8 -29 6 -46 34 -41 252 -65 252 -27 0 27 -19 37
-82 46 -44 6 -75 16 -89 30 -32 29 -73 28 -87 -3z"/>
<path d="M9911 4294 c0 -11 3 -14 6 -6 3 7 2 16 -1 19 -3 4 -6 -2 -5 -13z"/>
<path d="M9954 4286 c-5 -13 -3 -21 4 -24 7 -2 12 -12 12 -23 0 -16 5 -18 25
-13 19 5 25 2 25 -10 0 -9 4 -16 8 -16 5 0 8 20 8 45 -1 45 -1 46 -18 25 -19
-24 -35 -19 -48 14 -8 20 -8 20 -16 2z"/>
<path d="M9941 4194 c0 -11 3 -14 6 -6 3 7 2 16 -1 19 -3 4 -6 -2 -5 -13z"/>
<path d="M9958 4138 c-18 -21 -28 -43 -27 -63 0 -16 3 -24 6 -17 7 17 23 15
23 -3 0 -8 4 -15 9 -15 12 0 20 84 9 89 -5 1 -2 12 8 22 9 10 13 19 8 19 -5 0
-21 -15 -36 -32z"/>
<path d="M9873 4055 c-3 -9 -3 -19 1 -22 3 -4 6 1 6 10 0 8 8 18 18 20 16 4
16 5 -1 6 -10 0 -20 -6 -24 -14z"/>
<path d="M9960 3940 c-12 -7 -12 -12 -3 -21 15 -15 26 -7 21 15 -2 11 -7 13
-18 6z"/>
<path d="M9598 4284 c-12 -19 -21 -174 -10 -187 5 -7 13 -33 16 -59 12 -81 21
-53 21 62 0 60 -3 110 -7 110 -4 0 -8 19 -10 43 -2 23 -6 37 -10 31z"/>
<path d="M9402 4230 c0 -14 2 -19 5 -12 2 6 2 18 0 25 -3 6 -5 1 -5 -13z"/>
<path d="M9436 4225 c4 -8 8 -15 10 -15 2 0 4 7 4 15 0 8 -4 15 -10 15 -5 0
-7 -7 -4 -15z"/>
<path d="M9470 4230 c0 -5 5 -10 10 -10 6 0 10 5 10 10 0 6 -4 10 -10 10 -5 0
-10 -4 -10 -10z"/>
<path d="M9116 4201 c-4 -7 -5 -15 -2 -18 9 -9 19 4 14 18 -4 11 -6 11 -12 0z"/>
<path d="M9395 4189 c-4 -6 2 -13 14 -16 24 -6 28 -23 6 -23 -8 0 -15 -9 -15
-20 0 -25 17 -26 23 -2 4 14 6 13 12 -6 7 -21 9 -22 26 -6 12 10 18 29 17 50
-2 43 -18 45 -19 2 -1 -18 -3 -25 -6 -16 -6 23 -50 51 -58 37z"/>
<path d="M9552 4160 c0 -19 2 -27 5 -17 2 9 2 25 0 35 -3 9 -5 1 -5 -18z"/>
<path d="M9526 4111 c-3 -5 3 -11 14 -14 13 -3 20 0 20 9 0 15 -26 19 -34 5z"/>
<path d="M9090 4091 c0 -5 5 -13 10 -16 6 -3 10 -2 10 4 0 5 -4 13 -10 16 -5
3 -10 2 -10 -4z"/>
<path d="M9515 4070 c-8 -13 5 -13 25 0 13 8 13 10 -2 10 -9 0 -20 -4 -23 -10z"/>
<path d="M9420 4050 c0 -5 5 -10 11 -10 5 0 7 5 4 10 -3 6 -8 10 -11 10 -2 0
-4 -4 -4 -10z"/>
<path d="M9535 4042 c-17 -12 -17 -42 0 -42 9 0 15 9 15 25 0 27 0 28 -15 17z"/>
<path d="M9560 4025 c0 -8 5 -15 10 -15 6 0 10 7 10 15 0 8 -4 15 -10 15 -5 0
-10 -7 -10 -15z"/>
<path d="M9060 3931 c0 -12 6 -21 15 -21 8 0 15 4 15 9 0 5 -7 14 -15 21 -13
10 -15 9 -15 -9z"/>
<path d="M9617 3933 c-4 -3 -7 -11 -7 -17 0 -6 5 -5 12 2 6 6 9 14 7 17 -3 3
-9 2 -12 -2z"/>
<path d="M9911 6316 c-21 -26 13 -46 79 -46 32 0 143 -7 246 -16 266 -22 265
-22 277 -2 20 30 -18 46 -123 53 -52 3 -153 10 -224 15 -180 14 -241 13 -255
-4z"/>
<path d="M10075 6179 c-4 -12 -2 -26 5 -33 7 -7 98 -13 278 -18 374 -9 538
-16 680 -29 111 -11 125 -10 140 5 15 15 15 18 -5 38 -19 18 -38 22 -140 29
-194 13 -637 29 -800 29 -145 0 -152 -1 -158 -21z"/>
<path d="M8505 6046 c-24 -37 -16 -61 20 -61 28 0 30 2 30 40 0 49 -25 59 -50
21z"/>
<path d="M8630 6041 c-15 -4 -25 -14 -24 -24 3 -58 3 -58 37 -55 28 3 32 7 33
33 1 34 -5 55 -15 54 -3 -1 -17 -4 -31 -8z"/>
<path d="M10641 5759 c-54 -7 -70 -14 -100 -43 -23 -22 -52 -39 -81 -45 -65
-15 -68 -14 -72 21 -5 53 -38 63 -167 49 -58 -7 -131 -17 -161 -22 -30 -5
-125 -11 -210 -13 -132 -2 -165 -6 -220 -26 -64 -23 -199 -107 -274 -171 -22
-19 -51 -44 -65 -56 -20 -16 -23 -24 -15 -33 15 -15 41 -2 104 50 101 83 226
160 285 176 39 11 113 18 210 20 83 3 196 11 251 19 132 20 194 20 194 1 0 -8
-25 -64 -56 -124 -41 -82 -61 -112 -78 -116 -22 -5 -106 16 -191 48 -22 8 -48
15 -57 16 -10 0 -23 9 -30 20 -16 25 -44 26 -57 3 -9 -17 -11 -16 -34 5 -14
13 -33 22 -44 20 -18 -4 -19 -10 -9 -38 6 -15 -96 -70 -242 -131 -54 -22 -63
-41 -23 -47 24 -4 129 37 257 99 45 22 90 40 100 41 10 0 72 -19 137 -42 64
-22 126 -39 136 -35 10 3 31 1 46 -5 19 -7 39 -7 66 0 32 9 42 18 59 57 l20
46 73 -7 c101 -9 142 -22 174 -55 45 -47 61 -46 161 4 79 39 96 45 131 39 52
-8 96 10 115 47 13 26 12 31 -5 53 -10 13 -19 35 -19 49 0 30 -22 55 -56 63
-19 5 -23 11 -19 25 14 42 -84 58 -234 38z m77 -61 c-16 -5 -28 -16 -28 -24 0
-11 17 -14 73 -14 39 0 82 -3 95 -6 49 -14 16 -21 -90 -20 -107 1 -113 0 -113
-19 0 -18 9 -21 92 -27 114 -9 173 -24 173 -43 0 -21 -96 -19 -185 4 -38 11
-73 17 -77 14 -18 -10 -6 -25 34 -43 l42 -19 -29 -11 c-65 -25 -81 -24 -114 9
-37 36 -28 34 -158 31 -57 -1 -103 1 -103 4 0 4 11 24 25 46 24 39 27 40 79
40 68 0 99 12 148 55 35 32 43 35 101 34 53 0 58 -2 35 -11z"/>
<path d="M7367 5022 c-11 -12 -17 -35 -17 -64 0 -43 -1 -45 -25 -40 -74 14
-69 -102 7 -152 78 -51 318 -63 318 -17 0 18 -28 27 -153 51 -53 11 -120 50
-107 64 3 3 25 -2 50 -10 87 -30 151 4 78 42 -45 24 -56 42 -51 85 6 41 1 46
-49 54 -26 4 -39 1 -51 -13z"/>
<path d="M11245 4814 c-10 -11 -13 -23 -8 -38 4 -11 7 -37 8 -56 0 -31 -4 -36
-35 -46 -34 -11 -60 -37 -48 -49 12 -12 74 -22 106 -17 94 13 124 165 42 207
-37 19 -45 19 -65 -1z"/>
<path d="M11420 4735 c-7 -8 -16 -30 -19 -47 -5 -23 -20 -43 -51 -66 -120 -89
-124 -98 -41 -96 53 2 133 38 168 76 48 52 52 121 6 139 -34 13 -49 11 -63 -6z"/>
<path d="M2695 4285 c-33 -8 -83 -23 -112 -34 -28 -11 -90 -25 -138 -31 -127
-16 -171 -44 -221 -142 -43 -85 -36 -106 78 -224 62 -66 118 -156 118 -194 0
-8 -17 -48 -37 -89 -41 -80 -131 -180 -187 -206 -30 -15 -146 -126 -146 -141
0 -18 54 17 109 72 35 35 73 66 84 70 35 11 106 75 137 124 17 25 40 59 52 76
13 17 31 42 40 55 12 16 18 48 20 99 3 94 -14 130 -84 185 -100 78 -148 135
-148 174 0 48 98 120 165 121 42 0 148 24 223 49 84 29 170 37 226 21 45 -12
112 -69 165 -140 48 -64 205 -110 377 -110 85 0 128 -5 180 -21 86 -26 237
-109 223 -123 -2 -2 -71 -23 -154 -46 -82 -23 -179 -50 -215 -60 -36 -10 -90
-24 -120 -30 -30 -7 -72 -21 -92 -31 -21 -11 -48 -19 -60 -19 -46 -1 -88 -55
-88 -113 0 -39 6 -52 73 -155 28 -44 47 -84 47 -101 0 -16 -15 -68 -34 -116
-27 -70 -32 -94 -26 -122 18 -77 76 -108 220 -117 57 -4 106 -9 108 -11 3 -2
2 -19 -2 -38 -6 -34 -8 -34 -66 -40 -33 -3 -76 -13 -97 -24 -34 -16 -40 -24
-55 -83 -10 -36 -17 -77 -18 -91 0 -23 -5 -27 -42 -32 -24 -3 -110 -24 -193
-47 -82 -22 -224 -58 -315 -81 -91 -22 -188 -49 -215 -60 -28 -10 -58 -19 -67
-19 -11 0 -27 -21 -45 -59 l-28 -59 -131 -7 c-118 -7 -138 -5 -190 13 -109 38
-172 46 -261 35 -112 -15 -172 -60 -132 -100 8 -8 0 -14 -28 -23 -84 -27 -110
-90 -53 -130 24 -17 28 -24 18 -39 -14 -23 13 -83 50 -108 48 -32 201 -20 319
24 9 4 11 -3 7 -24 -4 -22 2 -40 25 -76 28 -40 37 -47 78 -53 91 -14 183 53
183 133 0 52 70 106 156 120 29 5 34 3 34 -14 0 -38 23 -54 87 -60 69 -6 112
10 245 89 40 25 82 48 92 52 11 3 57 29 103 57 45 28 88 47 94 44 6 -4 7 -20
4 -38 -16 -75 -105 -187 -208 -260 -58 -42 -117 -101 -117 -119 0 -19 64 -78
85 -78 34 0 144 -43 199 -78 28 -18 55 -32 62 -32 7 0 30 -21 53 -46 27 -31
54 -50 83 -58 36 -11 44 -18 46 -42 3 -23 -15 -130 -24 -142 -1 -2 -28 8 -61
22 -74 31 -170 48 -222 40 -40 -6 -43 -5 -110 58 -164 156 -259 192 -382 149
-196 -69 -319 -156 -319 -227 0 -22 29 -54 48 -54 22 0 12 -21 -15 -31 -50
-18 -187 -91 -229 -121 -46 -33 -102 -137 -111 -206 -7 -52 13 -148 38 -183
34 -48 135 -109 191 -116 68 -8 160 14 228 56 90 54 194 146 236 206 28 42 40
52 53 46 9 -5 39 -12 66 -16 71 -12 63 -9 182 -50 106 -36 177 -71 206 -99 18
-18 184 -126 194 -126 4 0 20 -12 36 -27 48 -46 94 -39 283 45 88 40 167 72
175 72 8 0 27 7 43 15 35 19 46 12 46 -28 0 -18 4 -48 10 -67 5 -19 11 -62 14
-94 5 -73 22 -90 83 -83 46 5 51 -1 71 -83 5 -22 18 -40 33 -47 17 -9 19 -13
7 -13 -52 0 -80 -34 -94 -113 l-6 -38 53 3 c53 3 54 4 57 36 2 17 4 32 5 32 1
0 54 9 117 20 178 31 259 53 334 94 57 30 72 32 80 10 11 -28 7 -34 -22 -34
-48 0 -152 -87 -152 -127 0 -32 63 -47 65 -15 4 48 59 82 133 82 27 0 53 5 60
12 22 22 14 67 -18 97 l-31 28 83 48 c237 137 275 153 319 135 32 -14 59 -55
59 -92 -1 -38 -46 -156 -75 -194 -33 -43 -88 -68 -180 -83 -106 -18 -183 -35
-192 -45 -4 -4 75 -6 177 -4 210 5 225 9 284 81 39 47 96 199 96 255 0 49 -35
108 -82 139 -35 24 -52 28 -112 28 -65 0 -79 -4 -166 -48 -52 -27 -100 -53
-106 -57 -26 -22 -226 -129 -294 -157 -85 -35 -281 -86 -314 -81 -15 2 -1 13
54 40 73 36 162 58 241 58 55 0 63 34 27 120 -20 48 -20 53 -5 62 25 14 21 34
-24 121 -26 50 -44 100 -49 139 -10 68 -34 101 -86 118 -42 14 -42 21 -1 40
22 10 33 23 35 41 3 22 -6 33 -48 63 -45 32 -51 41 -47 64 2 15 17 95 32 177
15 83 29 165 31 183 l5 32 64 0 c88 0 137 21 159 68 15 31 17 59 15 177 -2 77
-7 151 -11 165 -10 34 -48 194 -48 203 0 4 13 5 29 2 21 -3 54 6 108 29 43 18
96 39 118 46 22 7 74 29 115 48 143 66 209 91 312 117 138 36 197 62 204 90 5
21 -11 200 -22 237 -4 13 8 23 48 42 37 18 61 38 81 68 39 60 60 138 51 185
-5 21 -7 42 -6 46 1 4 -2 16 -8 27 -23 44 54 129 138 153 51 14 134 14 139 1
2 -6 -15 -24 -38 -40 -49 -34 -99 -106 -99 -144 0 -61 79 -82 90 -25 16 76 32
84 201 106 134 17 160 4 94 -47 -19 -14 -76 -38 -127 -53 -96 -28 -122 -47
-98 -76 10 -12 23 -14 55 -9 27 4 45 2 49 -5 4 -6 16 -11 26 -11 32 0 52 -29
44 -64 -8 -39 -44 -66 -44 -33 0 21 -64 77 -101 87 -45 13 -106 13 -171 -2
-62 -13 -78 -24 -78 -49 0 -25 44 -35 85 -20 41 15 128 14 143 -1 19 -19 14
-44 -10 -56 -23 -11 -166 -58 -248 -83 -109 -31 -180 -73 -180 -105 0 -29 89
-12 270 52 36 13 101 35 145 50 44 15 91 37 105 49 20 18 31 21 60 14 40 -9
93 10 108 38 5 10 13 37 17 59 6 37 3 46 -24 77 -17 19 -31 37 -31 41 0 3 15
12 33 19 17 8 47 28 65 45 25 24 32 38 32 69 0 45 -26 79 -66 89 -26 7 -133 0
-193 -12 -31 -7 -33 -6 -30 22 4 58 -1 73 -31 89 -43 22 -147 10 -227 -26 -33
-15 -64 -33 -68 -38 -3 -6 -14 -11 -23 -11 -24 -1 -56 -30 -76 -68 -14 -26
-15 -49 -10 -121 6 -81 5 -93 -18 -142 -25 -54 -69 -109 -86 -109 -6 0 -16 10
-25 23 -9 13 -38 31 -71 42 l-57 19 -117 -60 c-64 -34 -243 -136 -396 -228
-252 -151 -283 -167 -313 -161 -18 3 -42 1 -54 -5 -46 -25 -36 -11 84 124 34
38 65 76 69 85 14 34 8 68 -18 92 -23 21 -34 24 -92 21 -37 -1 -128 -14 -202
-28 -175 -34 -362 -38 -460 -10 -36 11 -66 20 -67 21 -1 0 2 18 8 38 9 32 14
37 39 37 17 0 30 5 30 10 0 6 23 10 51 10 46 0 55 4 85 36 19 19 34 40 34 45
0 5 7 9 15 9 19 0 19 -4 0 -41 -19 -36 -13 -49 24 -49 32 0 81 46 81 77 0 11
-9 32 -20 46 -11 14 -20 28 -20 31 0 3 35 23 79 46 111 58 151 108 115 144
-15 15 -13 19 14 50 29 33 30 36 25 118 -4 63 -1 92 11 121 9 20 19 37 22 37
18 0 74 -34 74 -45 0 -6 8 -19 18 -27 28 -25 55 -7 71 48 18 59 59 151 71 159
10 6 12 -1 31 -109 14 -83 39 -128 85 -156 35 -23 78 -24 80 -2 1 6 2 18 3 25
1 16 57 44 115 57 115 26 192 -69 137 -170 -16 -30 -26 -37 -86 -52 -38 -10
-73 -22 -77 -26 -5 -5 -13 -35 -18 -68 -13 -77 -37 -121 -74 -134 -44 -15
-159 -13 -182 5 -27 20 -71 19 -83 -3 -22 -40 38 -82 118 -82 62 0 71 -13 25
-35 -60 -28 -93 -35 -243 -50 -79 -8 -148 -18 -154 -24 -6 -6 1 -16 19 -28 23
-15 45 -18 125 -16 147 4 225 19 308 60 131 66 224 175 239 281 7 45 9 47 44
53 33 5 67 24 131 73 10 8 22 29 27 47 22 76 5 143 -52 198 -64 62 -202 68
-296 12 -29 -17 -57 -31 -63 -31 -13 0 -28 43 -40 110 -12 69 -25 101 -49 117
-19 13 -19 15 0 59 l20 46 -22 19 c-44 38 -78 47 -148 38 -76 -9 -322 -62
-363 -78 -48 -19 -78 -12 -149 30 -37 23 -100 55 -140 71 -65 27 -90 31 -227
39 -144 9 -249 27 -296 51 -11 6 -56 48 -100 93 -62 64 -91 86 -129 99 -59 19
-129 19 -211 1z m1688 -392 c-2 -12 -24 -51 -49 -85 -26 -35 -55 -83 -66 -108
-11 -24 -21 -46 -22 -48 -2 -1 -26 9 -54 23 -27 14 -56 25 -63 25 -20 0 -79
-75 -90 -113 -5 -17 -9 -73 -9 -124 0 -108 8 -101 -131 -108 -261 -13 -389
-104 -391 -276 0 -56 -3 -69 -15 -65 -7 3 -54 11 -103 17 -49 6 -97 17 -105
23 -30 22 -29 78 3 162 24 64 29 87 23 119 -10 55 -65 156 -114 212 -28 32
-16 68 31 92 52 26 198 68 545 156 352 89 517 124 572 122 35 -2 40 -5 38 -24z
m-399 -589 c9 -3 16 -14 16 -24 0 -21 -35 -48 -100 -75 -80 -34 -155 -94 -191
-151 -23 -38 -86 -71 -102 -55 -16 16 -8 120 13 168 32 72 130 118 295 137 17
1 35 4 42 5 6 0 18 -2 27 -5z m1180 -396 c13 -21 62 -276 54 -283 -2 -1 -53
-14 -114 -29 -123 -29 -188 -50 -279 -91 -110 -49 -120 -53 -190 -79 -84 -32
-139 -58 -181 -86 l-32 -20 -32 80 c-18 45 -30 83 -27 86 2 3 32 19 66 37 34
18 94 52 134 76 389 235 512 305 584 330 2 1 9 -9 17 -21z m-854 -111 c0 -8
-12 -24 -26 -38 -33 -30 -168 -189 -186 -218 -7 -12 -27 -31 -45 -42 -30 -19
-34 -19 -95 -4 -96 25 -191 57 -208 70 -8 7 -49 30 -90 52 -110 59 -221 91
-275 77 -21 -5 -25 -12 -23 -32 2 -21 10 -28 38 -35 106 -25 153 -44 224 -89
47 -29 119 -63 175 -81 53 -17 98 -34 101 -38 3 -3 15 -9 28 -13 25 -8 27 -23
11 -110 -20 -114 -42 -191 -70 -253 -16 -34 -29 -68 -29 -76 0 -7 -4 -17 -8
-22 -5 -6 -28 -55 -51 -111 -58 -137 -76 -159 -132 -157 -24 0 -81 2 -126 3
-83 2 -92 -1 -203 -60 -48 -26 -104 -15 -129 24 -24 36 -129 116 -153 116 -10
0 -54 14 -100 30 -45 17 -90 30 -100 30 -38 0 -24 18 72 95 98 78 143 127 182
200 28 51 33 70 32 128 l0 68 70 20 c103 30 116 36 116 58 0 37 -31 42 -111
21 -126 -33 -164 -52 -545 -266 -73 -41 -134 -74 -137 -74 -2 0 -7 25 -11 55
-3 30 -15 79 -27 109 -12 33 -19 72 -17 97 3 45 12 51 113 77 96 25 172 46
360 98 110 31 223 62 250 69 76 20 86 25 83 48 -2 17 2 21 27 22 27 0 30 4 46
67 10 38 21 72 24 78 10 16 78 11 202 -15 187 -40 382 -32 633 25 58 13 110
12 110 -3z m-68 -290 c64 -135 108 -277 128 -417 16 -111 7 -318 -16 -339 -5
-5 -30 -12 -55 -15 -41 -6 -47 -5 -52 14 -3 11 -13 20 -22 20 -15 0 -17 6 -11
38 69 385 75 472 39 585 -18 58 -53 81 -80 54 -14 -14 -15 -22 -4 -70 14 -57
10 -219 -8 -312 -28 -152 -49 -246 -55 -253 -10 -9 -169 -16 -201 -8 -25 6
-25 7 -9 44 9 20 30 69 45 107 16 39 35 81 43 95 26 47 65 275 58 338 -2 14 3
22 13 22 33 0 97 43 127 85 18 25 35 45 38 45 3 0 13 -15 22 -33z m-2249 -233
c135 -26 140 -27 243 -13 58 8 109 12 113 9 10 -6 31 -76 31 -102 0 -14 -8
-18 -32 -18 -38 0 -144 -52 -187 -90 -16 -15 -36 -50 -46 -81 -23 -70 -31 -79
-71 -79 -35 0 -46 13 -20 23 18 7 31 67 21 96 -3 12 -20 28 -37 37 -28 14 -35
14 -121 -12 -51 -14 -114 -31 -141 -37 -46 -10 -51 -9 -68 12 -10 13 -18 27
-18 32 0 17 44 31 138 41 120 13 151 31 97 56 -33 15 -96 15 -185 0 -61 -11
-72 -10 -86 4 -15 14 -13 17 22 28 21 7 70 14 108 15 108 4 133 21 76 50 -16
8 -49 15 -75 15 -42 0 -58 13 -38 33 14 15 146 6 276 -19z m1958 -543 c26 -4
71 -4 100 0 102 14 99 16 99 -43 0 -29 -7 -89 -16 -133 -9 -44 -23 -111 -30
-150 -8 -38 -17 -97 -20 -131 l-6 -61 36 -22 c39 -25 39 -41 0 -41 -36 0 -64
-17 -64 -39 0 -25 50 -66 97 -81 70 -22 83 -36 83 -85 0 -32 10 -66 35 -115
19 -38 35 -73 35 -78 0 -4 -53 -20 -117 -35 -65 -15 -147 -41 -183 -57 -35
-15 -68 -26 -72 -24 -4 3 -8 15 -8 28 0 32 -39 212 -60 276 -10 30 -28 91 -40
135 -26 93 -59 183 -101 276 -16 36 -29 69 -29 73 0 9 -62 103 -94 142 -14 18
-26 34 -26 38 0 3 26 3 58 0 46 -5 61 -3 74 10 9 9 28 16 41 16 34 0 69 31 92
79 17 36 23 41 45 35 14 -3 46 -9 71 -13z m-1387 -159 c12 -6 -9 -18 -88 -48
-71 -28 -136 -66 -193 -115 -30 -26 -65 -30 -78 -9 -9 15 35 57 97 91 159 87
219 105 262 81z m147 -103 c32 -29 59 -56 59 -60 0 -5 -26 -20 -57 -35 -110
-51 -190 -119 -223 -189 -33 -71 -90 -88 -130 -40 -11 13 -9 20 13 43 36 38
36 89 1 127 -14 15 -23 33 -20 40 8 22 94 76 180 112 44 20 85 39 91 44 16 15
25 11 86 -42z m337 -136 c65 -18 75 -27 43 -38 -27 -8 -101 -91 -101 -112 1
-18 22 -53 33 -53 2 0 12 17 20 39 18 45 94 121 120 121 15 0 11 -7 -16 -32
-28 -27 -35 -43 -40 -86 -8 -68 5 -105 35 -100 19 3 24 13 33 68 6 36 14 71
18 78 12 19 27 4 27 -27 0 -36 55 -111 82 -111 17 0 19 4 13 23 -4 12 -13 51
-20 85 -7 35 -17 68 -22 73 -11 11 -5 56 8 65 5 3 26 -7 46 -21 40 -26 233
-214 233 -226 0 -3 13 -22 30 -40 16 -19 30 -38 30 -43 0 -5 8 -16 18 -25 10
-9 30 -33 46 -53 l27 -37 -50 -15 c-27 -8 -111 -42 -185 -75 -75 -34 -140 -61
-146 -61 -5 0 -36 19 -67 43 -32 24 -85 60 -119 80 -33 20 -68 45 -78 56 -33
36 -276 127 -406 152 -99 19 -106 30 -68 106 24 49 110 116 199 157 64 30 167
34 257 9z m-753 -57 c8 -24 5 -31 -28 -61 -20 -19 -37 -43 -37 -54 0 -11 22
-37 52 -63 29 -23 60 -51 70 -60 25 -24 48 -22 88 7 64 47 69 24 8 -38 -24
-24 -56 -58 -73 -76 -37 -41 -171 -136 -219 -156 -73 -31 -159 -11 -216 50
-21 23 -25 38 -28 103 -3 65 0 86 22 133 35 79 74 112 200 167 60 26 114 55
120 65 14 23 29 17 41 -17z m2008 -638 c3 -13 9 -33 12 -45 7 -22 5 -23 -41
-23 -55 0 -122 -18 -183 -49 -31 -16 -42 -18 -46 -9 -2 7 -9 26 -15 41 -10 27
-8 29 35 48 50 22 178 58 211 58 14 1 23 -7 27 -21z"/>
<path d="M3722 3706 c-52 -57 -56 -111 -11 -155 29 -29 35 -31 107 -31 94 0
124 7 120 29 -5 23 -47 41 -100 41 -52 0 -56 7 -37 56 21 58 -40 104 -79 60z"/>
<path d="M3727 3483 c-48 -3 -60 -8 -74 -29 -15 -23 -15 -27 0 -41 9 -9 31
-16 49 -15 51 2 170 31 197 49 23 15 24 16 6 29 -18 14 -49 15 -178 7z"/>
<path d="M3183 2044 c-78 -70 -82 -93 -20 -123 24 -12 48 -21 53 -21 5 0 48
-20 96 -45 99 -51 216 -87 261 -79 77 13 78 14 102 67 12 29 30 59 39 66 24
20 20 58 -6 64 -33 9 -79 -18 -116 -68 -18 -25 -39 -45 -46 -45 -24 0 -128 39
-184 70 -30 16 -63 30 -73 30 -34 0 -32 23 6 54 28 24 36 38 33 56 -2 21 -9
25 -43 28 -36 2 -46 -4 -102 -54z"/>
<path d="M3951 1609 c-12 -41 -52 -87 -129 -149 -37 -31 -41 -38 -30 -53 44
-60 186 22 248 144 35 68 22 99 -40 99 -34 0 -38 -3 -49 -41z"/>
<path d="M4398 3498 c-22 -7 -28 -16 -28 -39 0 -24 7 -33 35 -46 51 -24 91 -9
87 32 -3 30 -34 66 -56 64 -6 0 -23 -5 -38 -11z"/>
<path d="M7890 3294 c-51 -21 -91 -42 -138 -71 -191 -121 -197 -123 -279 -129
-51 -4 -116 0 -188 10 -133 21 -479 55 -630 63 -182 9 -356 -29 -517 -114 -61
-33 -88 -52 -88 -65 0 -23 7 -23 50 3 57 36 142 77 190 93 106 36 296 46 420
22 202 -39 317 -56 445 -66 247 -18 364 -11 406 26 9 8 38 21 65 31 27 9 60
24 74 33 47 31 195 79 274 88 81 9 248 0 341 -18 28 -6 79 -15 114 -20 36 -6
83 -21 105 -34 23 -12 58 -32 79 -44 73 -42 138 -97 162 -137 13 -22 47 -71
75 -110 29 -38 75 -116 102 -173 27 -56 57 -106 66 -111 19 -10 31 -33 153
-286 87 -179 119 -259 148 -365 64 -231 87 -271 207 -367 38 -30 132 -114 208
-186 76 -73 149 -139 162 -147 415 -276 526 -361 563 -432 12 -23 10 -31 -10
-76 l-24 -51 -140 -55 c-147 -58 -177 -75 -289 -164 l-68 -55 6 -41 c4 -22 15
-49 24 -58 25 -25 166 -60 194 -49 57 24 192 61 288 81 58 12 152 40 210 62
58 22 128 48 155 58 78 27 155 70 172 97 23 34 5 61 -80 124 -96 72 -118 126
-74 189 31 46 73 68 132 69 113 2 167 -37 184 -133 15 -79 43 -122 102 -151
93 -48 232 -19 334 70 l40 34 -20 37 c-12 23 -42 52 -76 73 -88 57 -139 135
-154 236 -4 28 -17 64 -31 81 -22 30 -110 87 -196 127 -57 27 -316 101 -481
138 -107 24 -158 48 -215 103 -73 69 -113 175 -132 346 -25 231 -29 252 -54
304 -28 57 -88 111 -236 211 -142 97 -181 137 -200 203 -7 28 -4 44 15 88 13
30 27 70 31 89 13 73 67 99 237 115 254 24 373 52 453 106 59 40 160 74 222
74 75 0 187 -35 245 -76 26 -19 51 -34 55 -34 13 0 119 -118 158 -177 32 -48
84 -184 84 -218 0 -7 6 -18 14 -24 8 -7 17 -24 21 -39 12 -50 79 -144 133
-189 59 -47 183 -109 247 -123 22 -4 74 -15 115 -23 242 -49 283 -67 344 -152
67 -94 221 -196 292 -194 l29 0 -25 11 c-133 55 -187 94 -273 201 -70 87 -129
112 -369 162 -126 26 -243 73 -309 126 -39 31 -102 108 -129 158 -16 32 -37
119 -46 199 -9 85 -87 232 -168 319 -68 73 -133 107 -221 118 -33 4 -68 11
-78 17 -42 22 -270 -58 -377 -133 -52 -36 -182 -67 -350 -83 -94 -10 -194 -26
-233 -38 -70 -22 -89 -38 -107 -94 -4 -16 -18 -54 -29 -84 -49 -128 -10 -190
199 -321 213 -132 260 -197 280 -389 19 -182 32 -267 47 -315 45 -143 137
-218 313 -256 71 -15 291 -76 339 -94 20 -7 49 -16 66 -20 44 -10 163 -72 217
-113 47 -35 68 -72 68 -118 0 -64 83 -189 155 -234 18 -11 45 -36 60 -56 l27
-36 -27 -28 c-34 -35 -111 -69 -174 -77 -46 -5 -49 -4 -73 28 -14 19 -31 58
-37 87 -21 100 -55 141 -145 172 -86 29 -193 30 -253 1 -55 -26 -103 -82 -103
-120 0 -67 18 -95 105 -165 47 -37 85 -74 85 -81 0 -6 -9 -20 -19 -29 -19 -17
-129 -75 -144 -76 -9 0 -127 -44 -162 -61 -45 -20 -156 -49 -247 -64 -54 -8
-127 -25 -164 -36 -63 -20 -69 -20 -103 -4 -41 18 -91 78 -91 108 0 29 75 93
155 131 76 37 236 96 263 96 9 1 38 20 64 43 88 79 73 135 -62 228 -38 27 -73
49 -76 49 -18 0 -364 228 -466 307 -65 50 -370 366 -401 415 -19 31 -52 96
-73 145 -78 186 -105 245 -210 458 -119 243 -219 426 -291 536 -27 40 -56 84
-65 98 -10 14 -25 37 -35 51 -9 14 -53 60 -97 103 -90 87 -213 159 -350 203
-74 24 -98 27 -276 30 -107 2 -202 1 -210 -2z"/>
<path d="M2685 3260 c-329 -57 -648 -101 -765 -107 -63 -3 -121 -10 -127 -15
-7 -6 -13 -21 -13 -34 0 -43 59 -44 310 -4 69 11 193 29 275 40 83 11 173 25
200 30 28 5 93 14 145 20 148 16 160 19 160 43 0 24 -27 47 -55 46 -11 0 -69
-9 -130 -19z"/>
<path d="M2360 2954 c-52 -8 -174 -26 -270 -41 -96 -14 -211 -32 -255 -39 -44
-7 -118 -18 -165 -24 -104 -15 -130 -24 -130 -48 0 -25 49 -51 85 -45 17 3 98
18 180 34 186 37 378 65 559 84 130 13 155 21 156 48 0 12 -39 47 -52 46 -7
-1 -56 -8 -108 -15z"/>
<path d="M1733 2742 c-15 -15 -30 -42 -85 -154 -16 -34 -9 -119 14 -159 22
-39 38 -46 85 -33 l22 6 -25 39 c-13 22 -27 53 -31 69 -3 17 -10 33 -14 36
-17 10 -9 60 20 120 16 34 34 65 40 68 14 9 14 26 1 26 -5 0 -18 -8 -27 -18z"/>
<path d="M5262 2547 l-33 -10 8 -81 c15 -158 9 -214 -32 -297 -33 -65 -61 -97
-224 -259 -135 -133 -195 -200 -216 -240 -30 -59 -56 -94 -122 -168 l-42 -47
-134 0 c-119 0 -137 2 -156 19 l-21 19 0 -39 c0 -51 5 -56 70 -89 64 -33 110
-35 193 -10 48 14 71 29 131 88 74 73 117 138 170 257 22 48 47 83 100 134 39
37 87 79 107 92 108 68 210 220 229 339 13 83 22 305 12 304 -4 -1 -22 -6 -40
-12z"/>
<path d="M1755 1890 c-10 -17 -18 -145 -11 -182 6 -32 13 -38 72 -63 64 -27
66 -28 162 -16 53 6 138 18 187 26 108 17 186 19 217 4 18 -8 33 -6 63 7 l40
17 -44 19 c-72 32 -183 26 -337 -18 -150 -42 -199 -47 -260 -28 -30 9 -59 25
-64 35 -14 25 -12 135 2 158 12 19 5 51 -11 51 -5 0 -13 -4 -16 -10z"/>
<path d="M1678 1452 c-9 -4 -32 -27 -51 -51 -48 -61 -61 -136 -54 -307 6 -141
22 -199 66 -238 37 -33 119 -17 92 19 -27 35 -41 121 -41 248 0 152 14 214 56
259 28 28 28 29 9 47 -24 23 -54 32 -77 23z"/>
<path d="M1378 1283 c-75 -89 -34 -409 69 -538 34 -43 97 -65 119 -43 14 14
12 20 -19 61 -38 49 -60 113 -84 242 -16 86 -14 130 13 214 17 52 17 54 -1 67
-26 20 -79 17 -97 -3z"/>
<path d="M5566 789 c-16 -24 -10 -52 24 -99 11 -16 23 -43 27 -60 3 -17 12
-34 19 -37 25 -9 63 7 80 33 16 24 16 28 -20 99 -37 71 -52 84 -98 85 -9 0
-24 -10 -32 -21z"/>
<path d="M5427 772 c-21 -23 -22 -46 -2 -62 23 -19 18 -80 -10 -122 -30 -44
-31 -54 -6 -68 39 -20 67 -11 109 34 67 72 69 144 6 203 -40 37 -73 42 -97 15z"/>
</g>
</svg>
